<svg width="31" height="31" viewBox="0 0 31 31" fill="none" xmlns="http://www.w3.org/2000/svg">
<path fill-rule="evenodd" clip-rule="evenodd" d="M27.7127 6.99481C27.8354 7.18108 27.8901 7.40399 27.8675 7.62591C27.8449 7.84782 27.7464 8.05514 27.5887 8.21286L15.7144 20.0859C15.5929 20.2073 15.4414 20.2942 15.2753 20.3377L10.3295 21.6294C10.166 21.672 9.99418 21.6712 9.83113 21.6269C9.66807 21.5826 9.51944 21.4965 9.39997 21.377C9.2805 21.2575 9.19435 21.1089 9.15008 20.9459C9.1058 20.7828 9.10494 20.611 9.14758 20.4475L10.4393 15.503C10.477 15.3546 10.5481 15.2168 10.6472 15.1L22.5654 3.18956C22.7471 3.00815 22.9933 2.90625 23.25 2.90625C23.5067 2.90625 23.7529 3.00815 23.9346 3.18956L27.5887 6.8424C27.6351 6.8889 27.6766 6.93997 27.7127 6.99481ZM25.5337 7.52698L23.25 5.24461L12.2476 16.247L11.4403 19.338L14.5313 18.5307L25.5337 7.52698Z" fill="white"/>
<path d="M25.3696 22.1646C25.7227 19.1473 25.8354 16.1066 25.7068 13.0713C25.704 12.9998 25.7159 12.9285 25.7419 12.8618C25.7679 12.7951 25.8074 12.7345 25.8579 12.6838L27.1289 11.4128C27.1636 11.3779 27.2077 11.3537 27.2558 11.3433C27.3039 11.3328 27.3541 11.3364 27.4002 11.3537C27.4463 11.3711 27.4864 11.4013 27.5157 11.4409C27.5451 11.4805 27.5623 11.5277 27.5655 11.5769C27.8047 15.1822 27.7139 18.8019 27.2942 22.3907C26.9894 25.0024 24.8917 27.0497 22.2916 27.3404C17.7777 27.8402 13.2223 27.8402 8.70842 27.3404C6.10959 27.0497 4.01063 25.0024 3.7058 22.3907C3.17027 17.8123 3.17027 13.187 3.7058 8.60861C4.01063 5.99686 6.1083 3.94957 8.70842 3.65894C12.1344 3.27904 15.5862 3.18701 19.0275 3.38382C19.0768 3.38735 19.124 3.40493 19.1636 3.43447C19.2031 3.464 19.2334 3.50426 19.2508 3.55047C19.2682 3.59668 19.272 3.64691 19.2617 3.6952C19.2515 3.7435 19.2276 3.78785 19.1929 3.82298L17.9103 5.10432C17.86 5.15437 17.8001 5.1936 17.7341 5.21959C17.6681 5.24558 17.5975 5.25778 17.5266 5.25544C14.6549 5.15782 11.7799 5.2679 8.92413 5.58482C8.08964 5.67718 7.31065 6.04817 6.713 6.63785C6.11535 7.22753 5.73394 8.00147 5.63038 8.83465C5.11248 13.2629 5.11248 17.7364 5.63038 22.1646C5.73394 22.9978 6.11535 23.7718 6.713 24.3615C7.31065 24.9511 8.08964 25.3221 8.92413 25.4145C13.2577 25.8989 17.7423 25.8989 22.0772 25.4145C22.9117 25.3221 23.6907 24.9511 24.2883 24.3615C24.886 23.7718 25.2661 22.9978 25.3696 22.1646Z" fill="white"/>
</svg>
