<svg width="40" height="41" viewBox="0 0 40 41" fill="none" xmlns="http://www.w3.org/2000/svg">
<rect y="0.5" width="40" height="40" rx="12" fill="#E8EDF2"/>
<path fill-rule="evenodd" clip-rule="evenodd" d="M27.3281 24.2453C26.8945 23.4984 26.25 21.3852 26.25 18.625C26.25 15.1732 23.4518 12.375 20 12.375C16.5482 12.375 13.75 15.1732 13.75 18.625C13.75 21.3859 13.1047 23.4984 12.6711 24.2453C12.4457 24.6318 12.4441 25.1092 12.6668 25.4973C12.8895 25.8853 13.3026 26.1247 13.75 26.125H16.9383C17.2356 27.5796 18.5153 28.6243 20 28.6243C21.4847 28.6243 22.7644 27.5796 23.0617 26.125H26.25C26.6972 26.1244 27.1101 25.8849 27.3326 25.4969C27.5551 25.109 27.5534 24.6317 27.3281 24.2453ZM20 27.375C19.2056 27.3748 18.4976 26.8739 18.2328 26.125H21.7672C21.5024 26.8739 20.7944 27.3748 20 27.375ZM13.75 24.875C14.3516 23.8406 15 21.4438 15 18.625C15 15.8636 17.2386 13.625 20 13.625C22.7614 13.625 25 15.8636 25 18.625C25 21.4414 25.6469 23.8383 26.25 24.875H13.75Z" fill="#0D171C"/>
</svg>
