<svg width="140" height="24" viewBox="0 0 140 24" fill="none" xmlns="http://www.w3.org/2000/svg">
<path d="M89 16C90.0609 16 91.0783 15.5786 91.8284 14.8284C92.5786 14.0783 93 13.0609 93 12C93 10.9391 92.5786 9.92172 91.8284 9.17157C91.0783 8.42143 90.0609 8 89 8C87.9391 8 86.9217 8.42143 86.1716 9.17157C85.4214 9.92172 85 10.9391 85 12C85 13.0609 85.4214 14.0783 86.1716 14.8284C86.9217 15.5786 87.9391 16 89 16Z" stroke="black" stroke-width="1.5" stroke-linecap="round" stroke-linejoin="round"/>
<path d="M80 16V8C80 6.67392 80.5268 5.40215 81.4645 4.46447C82.4021 3.52678 83.6739 3 85 3H93C94.3261 3 95.5979 3.52678 96.5355 4.46447C97.4732 5.40215 98 6.67392 98 8V16C98 17.3261 97.4732 18.5979 96.5355 19.5355C95.5979 20.4732 94.3261 21 93 21H85C83.6739 21 82.4021 20.4732 81.4645 19.5355C80.5268 18.5979 80 17.3261 80 16Z" stroke="black" stroke-width="1.5"/>
<path d="M94.5 6.50905L94.51 6.49805" stroke="black" stroke-width="1.5" stroke-linecap="round" stroke-linejoin="round"/>
<path fill-rule="evenodd" clip-rule="evenodd" d="M126.386 8.35696C126.272 8.28865 126.142 8.25176 126.01 8.25006C125.877 8.24837 125.746 8.28192 125.631 8.3473C125.515 8.41268 125.419 8.50755 125.352 8.62221C125.285 8.73687 125.25 8.86723 125.25 8.99996V15C125.25 15.1327 125.285 15.263 125.352 15.3777C125.419 15.4924 125.515 15.5872 125.631 15.6526C125.746 15.718 125.877 15.7515 126.01 15.7499C126.142 15.7482 126.272 15.7113 126.386 15.643L131.386 12.643C131.497 12.5763 131.589 12.4821 131.653 12.3694C131.716 12.2567 131.75 12.1294 131.75 12C131.75 11.8705 131.716 11.7432 131.653 11.6305C131.589 11.5179 131.497 11.4236 131.386 11.357L126.386 8.35696ZM129.542 12L126.75 13.675V10.325L129.542 12Z" fill="black"/>
<path fill-rule="evenodd" clip-rule="evenodd" d="M133.03 4.64175C129.682 4.37983 126.318 4.37983 122.97 4.64175L120.729 4.81775C120.067 4.86936 119.441 5.14107 118.951 5.5896C118.461 6.03813 118.136 6.63768 118.026 7.29275C117.505 10.4098 117.505 13.5917 118.026 16.7087C118.136 17.3638 118.461 17.9634 118.951 18.4119C119.441 18.8604 120.067 19.1321 120.729 19.1837L122.969 19.3597C126.318 19.6217 129.682 19.6217 133.031 19.3597L135.271 19.1837C135.933 19.1321 136.559 18.8604 137.049 18.4119C137.539 17.9634 137.864 17.3638 137.974 16.7087C138.494 13.5917 138.494 10.4097 137.974 7.29275C137.864 6.63768 137.539 6.03813 137.049 5.5896C136.559 5.14107 135.933 4.86936 135.271 4.81775L133.03 4.64175ZM123.087 6.13775C126.358 5.88182 129.644 5.88182 132.915 6.13775L135.155 6.31275C135.831 6.36575 136.384 6.87275 136.495 7.54075C136.988 10.4936 136.988 13.5079 136.495 16.4607C136.441 16.7857 136.279 17.0831 136.037 17.3057C135.794 17.5282 135.483 17.6631 135.155 17.6887L132.915 17.8637C129.644 18.1197 126.358 18.1197 123.087 17.8637L120.847 17.6887C120.519 17.6631 120.208 17.5282 119.965 17.3057C119.723 17.0831 119.561 16.7857 119.507 16.4607C119.014 13.5079 119.014 10.4936 119.507 7.54075C119.561 7.21582 119.723 6.91838 119.965 6.69582C120.208 6.47327 120.519 6.33841 120.847 6.31275L123.087 6.13775Z" fill="black"/>
<g clip-path="url(#clip0_215_512)">
<path d="M47.5 19.3996C46.3356 19.3996 45.1826 19.1823 44.1069 18.7602C43.0311 18.3381 42.0537 17.7193 41.2303 16.9393C40.407 16.1593 39.7539 15.2333 39.3083 14.2141C38.8627 13.195 38.6333 12.1027 38.6333 10.9996C38.6333 9.89651 38.8627 8.8042 39.3083 7.78507C39.7539 6.76593 40.407 5.83992 41.2303 5.05991C42.0537 4.2799 43.0311 3.66116 44.1069 3.23902C45.1826 2.81688 46.3356 2.59961 47.5 2.59961C49.8516 2.59961 52.1069 3.48461 53.7697 5.05991C55.4325 6.63522 56.3667 8.77179 56.3667 10.9996C56.3667 13.2274 55.4325 15.364 53.7697 16.9393C52.1069 18.5146 49.8516 19.3996 47.5 19.3996ZM47.5 19.3996V9.79961C47.5 9.16309 47.7669 8.55264 48.242 8.10255C48.7171 7.65247 49.3614 7.39961 50.0333 7.39961H50.6667M44.3333 12.1996H50.6667" stroke="black"/>
</g>
<path fill-rule="evenodd" clip-rule="evenodd" d="M17.9883 19.0312L11.7404 10.8354L11.7511 10.843L17.3845 4.96875H15.5019L10.9129 9.75L7.26855 4.96875H2.33139L8.16436 12.6207L8.16365 12.62L2.01172 19.0312H3.89424L8.99623 13.7118L13.0511 19.0312H17.9883ZM6.52266 6.24715L15.2888 17.7528H13.797L5.02377 6.24715H6.52266Z" fill="black"/>
<defs>
<clipPath id="clip0_215_512">
<rect width="19" height="18" fill="white" transform="translate(38 2)"/>
</clipPath>
</defs>
</svg>
