<svg width="24" height="24" viewBox="0 0 24 24" fill="none" xmlns="http://www.w3.org/2000/svg">
<g clip-path="url(#clip0_88_78)">
<path fill-rule="evenodd" clip-rule="evenodd" d="M12.7069 15.7064C12.5193 15.8938 12.265 15.9992 11.9999 15.9992C11.7347 15.9992 11.4804 15.8938 11.2929 15.7064L5.63585 10.0494C5.54034 9.95712 5.46416 9.84678 5.41175 9.72477C5.35934 9.60277 5.33176 9.47155 5.3306 9.33877C5.32945 9.20599 5.35475 9.07431 5.40503 8.95141C5.45531 8.82852 5.52957 8.71686 5.62346 8.62297C5.71735 8.52908 5.829 8.45483 5.9519 8.40454C6.0748 8.35426 6.20648 8.32896 6.33926 8.33012C6.47204 8.33127 6.60325 8.35886 6.72526 8.41126C6.84726 8.46367 6.95761 8.53986 7.04985 8.63537L11.9999 13.5854L16.9499 8.63537C17.1385 8.45321 17.3911 8.35241 17.6533 8.35469C17.9155 8.35697 18.1663 8.46214 18.3517 8.64755C18.5371 8.83296 18.6423 9.08377 18.6445 9.34597C18.6468 9.60816 18.546 9.86076 18.3639 10.0494L12.7069 15.7064Z" fill="black"/>
</g>
<defs>
<clipPath id="clip0_88_78">
<rect width="24" height="24" fill="white"/>
</clipPath>
</defs>
</svg>
