<svg width="26" height="23" viewBox="0 0 26 23" fill="none" xmlns="http://www.w3.org/2000/svg">
<path d="M3.25 3.59375V7.1875C3.25 7.37812 3.3356 7.56094 3.48798 7.69573C3.64035 7.83052 3.84701 7.90625 4.0625 7.90625C4.27799 7.90625 4.48465 7.83052 4.63702 7.69573C4.7894 7.56094 4.875 7.37812 4.875 7.1875V4.3125H8.125C8.34049 4.3125 8.54715 4.23677 8.69952 4.10198C8.8519 3.96719 8.9375 3.78437 8.9375 3.59375C8.9375 3.40313 8.8519 3.22031 8.69952 3.08552C8.54715 2.95073 8.34049 2.875 8.125 2.875H4.0625C3.84701 2.875 3.64035 2.95073 3.48798 3.08552C3.3356 3.22031 3.25 3.40313 3.25 3.59375ZM17.875 18.6875H21.125V15.8125C21.125 15.6219 21.2106 15.4391 21.363 15.3043C21.5153 15.1695 21.722 15.0938 21.9375 15.0938C22.153 15.0938 22.3597 15.1695 22.512 15.3043C22.6644 15.4391 22.75 15.6219 22.75 15.8125V19.4062C22.75 19.5969 22.6644 19.7797 22.512 19.9145C22.3597 20.0493 22.153 20.125 21.9375 20.125H17.875C17.6595 20.125 17.4528 20.0493 17.3005 19.9145C17.1481 19.7797 17.0625 19.5969 17.0625 19.4062C17.0625 19.2156 17.1481 19.0328 17.3005 18.898C17.4528 18.7632 17.6595 18.6875 17.875 18.6875ZM4.0625 15.0938C4.27799 15.0938 4.48465 15.1695 4.63702 15.3043C4.7894 15.4391 4.875 15.6219 4.875 15.8125V18.6875H8.125C8.34049 18.6875 8.54715 18.7632 8.69952 18.898C8.8519 19.0328 8.9375 19.2156 8.9375 19.4062C8.9375 19.5969 8.8519 19.7797 8.69952 19.9145C8.54715 20.0493 8.34049 20.125 8.125 20.125H4.0625C3.84701 20.125 3.64035 20.0493 3.48798 19.9145C3.3356 19.7797 3.25 19.5969 3.25 19.4062V15.8125C3.25 15.6219 3.3356 15.4391 3.48798 15.3043C3.64035 15.1695 3.84701 15.0938 4.0625 15.0938ZM21.9375 7.90625C21.722 7.90625 21.5153 7.83052 21.363 7.69573C21.2106 7.56094 21.125 7.37812 21.125 7.1875V4.3125H17.875C17.6595 4.3125 17.4528 4.23677 17.3005 4.10198C17.1481 3.96719 17.0625 3.78437 17.0625 3.59375C17.0625 3.40313 17.1481 3.22031 17.3005 3.08552C17.4528 2.95073 17.6595 2.875 17.875 2.875H21.9375C22.153 2.875 22.3597 2.95073 22.512 3.08552C22.6644 3.22031 22.75 3.40313 22.75 3.59375V7.1875C22.75 7.37812 22.6644 7.56094 22.512 7.69573C22.3597 7.83052 22.153 7.90625 21.9375 7.90625ZM17.875 6.46875H8.125C7.90951 6.46875 7.70285 6.54448 7.55048 6.67927C7.3981 6.81406 7.3125 6.99688 7.3125 7.1875V15.8125C7.3125 16.0031 7.3981 16.1859 7.55048 16.3207C7.70285 16.4555 7.90951 16.5312 8.125 16.5312H17.875C18.0905 16.5312 18.2972 16.4555 18.4495 16.3207C18.6019 16.1859 18.6875 16.0031 18.6875 15.8125V7.1875C18.6875 6.99688 18.6019 6.81406 18.4495 6.67927C18.2972 6.54448 18.0905 6.46875 17.875 6.46875ZM17.0625 15.0938H8.9375V7.90625H17.0625V15.0938Z" fill="black"/>
</svg>
