<svg width="20" height="20" viewBox="0 0 20 20" fill="none" xmlns="http://www.w3.org/2000/svg">
<path fill-rule="evenodd" clip-rule="evenodd" d="M10 5.4375C7.51472 5.4375 5.5 7.45222 5.5 9.9375C5.5 12.4228 7.51472 14.4375 10 14.4375C12.4853 14.4375 14.5 12.4228 14.5 9.9375C14.4974 7.45329 12.4842 5.44008 10 5.4375ZM10 12.9375C8.34315 12.9375 7 11.5944 7 9.9375C7 8.28065 8.34315 6.9375 10 6.9375C11.6569 6.9375 13 8.28065 13 9.9375C13 11.5944 11.6569 12.9375 10 12.9375ZM14.5 0.1875H5.5C2.60179 0.1906 0.2531 2.53929 0.25 5.4375V14.4375C0.2531 17.3357 2.60179 19.6844 5.5 19.6875H14.5C17.3982 19.6844 19.7469 17.3357 19.75 14.4375V5.4375C19.7469 2.53929 17.3982 0.1906 14.5 0.1875ZM18.25 14.4375C18.25 16.5086 16.5711 18.1875 14.5 18.1875H5.5C3.42893 18.1875 1.75 16.5086 1.75 14.4375V5.4375C1.75 3.36643 3.42893 1.6875 5.5 1.6875H14.5C16.5711 1.6875 18.25 3.36643 18.25 5.4375V14.4375ZM16 5.0625C16 5.68382 15.4963 6.1875 14.875 6.1875C14.2537 6.1875 13.75 5.68382 13.75 5.0625C13.75 4.44118 14.2537 3.9375 14.875 3.9375C15.4963 3.9375 16 4.44118 16 5.0625Z" fill="#4A709C"/>
</svg>
