<svg width="21" height="19" viewBox="0 0 21 19" fill="none" xmlns="http://www.w3.org/2000/svg">
<path fill-rule="evenodd" clip-rule="evenodd" d="M20.1928 3.40063C20.0768 3.12035 19.8033 2.93756 19.5 2.9375H16.6472C15.8359 1.55722 14.3604 0.703291 12.7594 0.6875C11.5747 0.671962 10.4339 1.13504 9.59531 1.97188C8.73219 2.81888 8.24717 3.97821 8.25 5.1875V5.75844C4.47563 4.76281 1.38844 1.6925 1.35563 1.65969C1.15019 1.45243 0.843182 1.38316 0.568648 1.48211C0.294115 1.58106 0.101905 1.83027 0.0759375 2.12094C-0.328125 6.60125 0.973125 9.59937 2.13844 11.3253C2.70664 12.1785 3.39786 12.943 4.18969 13.5941C2.76188 15.2375 0.51375 16.1009 0.489375 16.1103C0.274975 16.1906 0.108995 16.3644 0.0386822 16.5823C-0.031631 16.8002 0.00142384 17.0383 0.128438 17.2288C0.19875 17.3337 0.48 17.7022 1.16719 18.0462C2.01656 18.4719 3.13875 18.6875 4.5 18.6875C11.1253 18.6875 16.6612 13.5856 17.2266 7.02125L20.0306 4.21812C20.2451 4.00351 20.3091 3.68085 20.1928 3.40063ZM15.9741 6.15781C15.8455 6.28671 15.7682 6.45799 15.7566 6.63969C15.375 12.5544 10.4325 17.1875 4.5 17.1875C3.51 17.1875 2.8125 17.0562 2.32312 16.8988C3.40219 16.3128 4.90688 15.305 5.87438 13.8538C5.98915 13.6813 6.02746 13.469 5.98023 13.2673C5.93299 13.0655 5.80442 12.8923 5.625 12.7887C5.58094 12.7634 1.50844 10.3194 1.5 3.78875C3 5.0075 5.74219 6.89844 8.87531 7.42531C9.09265 7.46196 9.3151 7.40114 9.48358 7.25904C9.65205 7.11693 9.74949 6.9079 9.75 6.6875V5.1875C9.7483 4.37926 10.0728 3.60452 10.65 3.03875C11.2034 2.48436 11.9574 2.17733 12.7406 2.1875C13.9275 2.2025 15.0366 2.92625 15.5006 3.98844C15.6202 4.26132 15.8899 4.43758 16.1878 4.4375H17.6878L15.9741 6.15781Z" fill="#4A709C"/>
</svg>
