<svg width="18" height="16" viewBox="0 0 18 16" fill="none" xmlns="http://www.w3.org/2000/svg">
<path fill-rule="evenodd" clip-rule="evenodd" d="M17.6734 9.20312L16.7359 1.70312C16.6178 0.765382 15.8202 0.0621755 14.875 0.0625H1.4375C0.747144 0.0625 0.1875 0.622144 0.1875 1.3125V8.1875C0.1875 8.87786 0.747144 9.4375 1.4375 9.4375H4.80156L7.75313 15.3422C7.8591 15.554 8.07568 15.6877 8.3125 15.6875C10.0384 15.6875 11.4375 14.2884 11.4375 12.5625V11.3125H15.8125C16.3507 11.3127 16.8631 11.0816 17.2192 10.6779C17.5753 10.2743 17.7407 9.73714 17.6734 9.20312ZM4.5625 8.1875H1.4375V1.3125H4.5625V8.1875ZM16.2812 9.85078C16.1634 9.98637 15.9922 10.0637 15.8125 10.0625H10.8125C10.4673 10.0625 10.1875 10.3423 10.1875 10.6875V12.5625C10.1877 13.4564 9.55696 14.2261 8.68047 14.4016L5.8125 8.66484V1.3125H14.875C15.1901 1.31239 15.4559 1.54679 15.4953 1.85938L16.4328 9.35938C16.4565 9.53745 16.4011 9.71699 16.2812 9.85078Z" fill="#4A709C"/>
</svg>
