<svg width="20" height="20" viewBox="0 0 20 20" fill="none" xmlns="http://www.w3.org/2000/svg">
<path fill-rule="evenodd" clip-rule="evenodd" d="M18.25 0.1875H1.75C0.921573 0.1875 0.25 0.859073 0.25 1.6875V18.1875C0.25 19.0159 0.921573 19.6875 1.75 19.6875H18.25C19.0784 19.6875 19.75 19.0159 19.75 18.1875V1.6875C19.75 0.859073 19.0784 0.1875 18.25 0.1875ZM18.25 18.1875H1.75V1.6875H18.25V18.1875ZM7 8.4375V14.4375C7 14.8517 6.66421 15.1875 6.25 15.1875C5.83579 15.1875 5.5 14.8517 5.5 14.4375V8.4375C5.5 8.02329 5.83579 7.6875 6.25 7.6875C6.66421 7.6875 7 8.02329 7 8.4375ZM15.25 11.0625V14.4375C15.25 14.8517 14.9142 15.1875 14.5 15.1875C14.0858 15.1875 13.75 14.8517 13.75 14.4375V11.0625C13.75 10.027 12.9105 9.1875 11.875 9.1875C10.8395 9.1875 10 10.027 10 11.0625V14.4375C10 14.8517 9.66421 15.1875 9.25 15.1875C8.83579 15.1875 8.5 14.8517 8.5 14.4375V8.4375C8.50193 8.05725 8.78811 7.73862 9.16598 7.69602C9.54384 7.65342 9.89378 7.90035 9.98031 8.27063C11.0142 7.56924 12.351 7.49641 13.455 8.08131C14.559 8.6662 15.2496 9.81313 15.25 11.0625ZM7.375 5.8125C7.375 6.43382 6.87132 6.9375 6.25 6.9375C5.62868 6.9375 5.125 6.43382 5.125 5.8125C5.125 5.19118 5.62868 4.6875 6.25 4.6875C6.87132 4.6875 7.375 5.19118 7.375 5.8125Z" fill="#4A709C"/>
</svg>
