<svg width="18" height="18" viewBox="0 0 18 18" fill="none" xmlns="http://www.w3.org/2000/svg">
<path fill-rule="evenodd" clip-rule="evenodd" d="M17.3203 7.87344L13.7969 10.9484L14.8523 15.5266C14.9665 16.0159 14.7766 16.526 14.3703 16.8215C13.964 17.1171 13.4202 17.1406 12.9898 16.8813L8.99687 14.4594L5.0125 16.8813C4.58216 17.1406 4.03836 17.1171 3.63203 16.8215C3.22569 16.526 3.03581 16.0159 3.15 15.5266L4.20391 10.9531L0.679688 7.87344C0.298576 7.54474 0.151757 7.01955 0.307166 6.54087C0.462575 6.06219 0.889898 5.72339 1.39141 5.68125L6.03672 5.27891L7.85 0.953906C8.04363 0.48986 8.49718 0.187656 9 0.187656C9.50282 0.187656 9.95637 0.48986 10.15 0.953906L11.9688 5.27891L16.6125 5.68125C17.114 5.72339 17.5413 6.06219 17.6967 6.54087C17.8521 7.01955 17.7053 7.54474 17.3242 7.87344H17.3203Z" fill="#1C85F2"/>
</svg>
