<svg width="18" height="16" viewBox="0 0 18 16" fill="none" xmlns="http://www.w3.org/2000/svg">
<path fill-rule="evenodd" clip-rule="evenodd" d="M17.2812 5.19688C16.9252 4.79344 16.4131 4.56239 15.875 4.5625H11.5V3.3125C11.5 1.58661 10.1009 0.1875 8.375 0.1875C8.13818 0.18733 7.9216 0.321027 7.81563 0.532812L4.86406 6.4375H1.5C0.809644 6.4375 0.25 6.99714 0.25 7.6875V14.5625C0.25 15.2529 0.809644 15.8125 1.5 15.8125H14.9375C15.8827 15.8128 16.6803 15.1096 16.7984 14.1719L17.7359 6.67188C17.8032 6.13773 17.6375 5.60047 17.2812 5.19688ZM1.5 7.6875H4.625V14.5625H1.5V7.6875ZM16.4953 6.51562L15.5578 14.0156C15.5184 14.3282 15.2526 14.5626 14.9375 14.5625H5.875V7.21016L8.74297 1.47344C9.61946 1.64886 10.2502 2.41862 10.25 3.3125V5.1875C10.25 5.53268 10.5298 5.8125 10.875 5.8125H15.875C16.0544 5.81244 16.2252 5.88948 16.3439 6.02402C16.4626 6.15856 16.5177 6.33762 16.4953 6.51562Z" fill="#4A709C"/>
</svg>
